<?xml version="1.0" encoding="utf-8"?>
<!-- Generator: Adobe Illustrator 27.0.0, SVG Export Plug-In . SVG Version: 6.00 Build 0)  -->
<svg version="1.1" id="_图层_2" xmlns="http://www.w3.org/2000/svg" xmlns:xlink="http://www.w3.org/1999/xlink" x="0px" y="0px"
	 viewBox="0 0 120.3 39.6" style="enable-background:new 0 0 120.3 39.6;" xml:space="preserve">
<g id="_图层_1-2">
	<g>
		<path d="M120.3,37.5c-1,1.5-2.4,2.1-4.2,1.8c-0.5-0.1-1-0.3-1.3-0.6c-1.3-1.6-3.2-2.8-4.3-4.4c-1.1-1.6-2.3-1.3-3.6-1.4
			c-0.6,0-0.9,0.2-0.9,0.8c0,1-0.3,2-0.8,2.8c-0.9,1.7-2.4,2.5-4.3,2.2c-0.3,0-0.7-0.2-0.8-0.3c-0.7-1.4-2.3-1.9-3-3.2
			c-0.6-1.2-2-1.3-2.7-0.2c-3,4.3-8.1,5.4-12.6,4.1c-1-0.3-1.9-0.8-2.7-1.6c-2.1-2.2-4.5-4.2-6.5-6.8c-0.3,2-0.5,3.8-0.8,5.6
			c-0.2,1.2-0.4,2.6-1.8,3c-1.4,0.5-2.5-0.5-3.4-1.4c-1.8-1.7-3.5-3.5-5.3-5.4c-1,1.7-1.5,3.5-2.5,5c-1.4,2.2-3.4,2.1-5,0.1
			c-0.7-0.9-1.6-2-2.6-2.5c-1.3-0.8-1.7-1.9-1.9-3.2c-1-9-2-17.9-2.9-26.9c-0.2-1.5,0.9-3.3,2.1-3.8c1.3-0.6,2.9,0,4.1,1.3
			c0.9,1,1.8,2.1,2.9,2.9c1.3,1,1.8,2.2,1.8,3.7c0.1,2.2,0.4,4.4,0.5,6.5c0,0.6,0.1,1,0.9,1.1c0.8,0.1,1.3,0.6,1.7,1.3
			c0.5,1.1,1.9,1.3,2.4,2.7c0.8-2.2,1-4.3,1.1-6.3c0.2-2,0.4-3.9,0.8-5.9c0.2-1.1,0.8-1.8,1.9-2c1.1-0.2,2.2,0.1,2.9,1
			c1.1,1.3,2.3,2.5,3.6,3.6c0.9,0.7,1.4,1.6,1.3,2.8c-0.1,1.1-0.2,2.2-0.2,3.4c0.8-1.7,2.4-2.4,4-3.1c4.2-1.9,10.1-1.1,13.1,2.7
			c1.1,1.3,2.3,2.6,3.9,3.7c0.7-2.7,1.5-5.4,2.5-7.9c1.4-3.7,3.2-7.3,5.1-10.8c0.5-1,1.4-1.2,2.2-1.6h3c2.3,0.9,3.6,2.9,5.4,4.3
			c2.3,1.9,3.6,4.1,3.3,7.1c0,0.1,0.1,0.3,0.1,0.4c0.5,5,1.9,9.9,2.7,14.9c0.3,2,0.5,4,0.8,6L120.3,37.5L120.3,37.5z M115.4,30.5
			c-0.2-2.2-0.3-5-0.8-7.7c-1-5.8-2.5-11.5-2.9-17.4c-0.1-2-1.8-3.7-3.8-4.3c-1.9-0.5-3.9-0.1-4.6,1.1c-3.9,7.1-7.2,14.5-8.1,22.7
			c-0.3,2.3-0.9,4.7,0,7.1c0.3,0.8,0.4,1.9,1.6,1.9c1.3,0,2.6,0,3.4-1.4c0.5-1,1-2,0.9-3.1c-0.1-1,0.3-1.3,1.2-1.2
			c2.1,0,4.3,0.2,6.3-0.8c0.8-0.4,1.1,0.2,1.1,0.9c0.1,1.4,0,2.8,0.4,4.1c0.3,1.3,0.9,2.2,2.4,2.2C114.7,34.8,115.5,33.8,115.4,30.5
			L115.4,30.5z M62.2,24.2c-0.7-1.9-1.4-3.4-1.9-5c-0.3-1-0.7-1.9-1.7-2c-1-0.2-1.6,0.7-2.1,1.5c-0.8,1.2-1.5,2.4-2.3,3.6
			c-0.4-0.6-0.4-1.2-0.4-1.7c-0.4-5.3-0.9-10.7-1.3-16c-0.2-2.2-1.3-3.3-3.2-3.1c-1.5,0.2-2.4,1.8-2.2,3.6c0.8,7,1.5,14.1,2.3,21.1
			c0.2,2.2,0.2,4.5,0.9,6.6c0.4,1.4,1.3,1.7,2.7,1.1c0.7-0.3,1.1-0.9,1.4-1.5c1.1-2.1,2.2-4.2,3.3-6.3c0.6-1.1,1.1-1.1,1.8,0
			c0.5,0.8,0.8,1.6,1,2.5c0.6,2.1,1.5,4,3.3,5.3c1.5,1.1,2.5,0.8,3-0.9c0.2-0.8,0.4-1.6,0.5-2.5c0.6-4.7,1.1-9.3,1.7-14
			c0.3-2.3,0.6-4.5,0.7-6.8c0.1-1.5-0.7-2.6-2.1-2.7c-1.5-0.2-2,0.7-2.2,2c-0.3,1.8-0.6,3.6-0.8,5.4C64.3,17.7,63.7,20.8,62.2,24.2
			L62.2,24.2z M91.3,22.5c0,0-0.1,0-0.1,0c0-0.8,0-1.6,0-2.4c0-2.9-1.5-4.6-4.1-5.6c-2.7-1-5.4-1-8.1-0.1c-1.2,0.4-2.5,0.8-3.2,1.8
			c-2.3,3.2-4.2,6.7-3.5,10.9c0.5,3.1,2,5.7,5,6.9c5.9,2.3,13.2-1.5,13.6-7.7C91,25.1,91.2,23.8,91.3,22.5L91.3,22.5z M65.3,35.4
			c1.9,1.8,3.1,1.5,3.5-0.9c0.5-2.8,0.8-5.6,1.1-8.4c0.6-4.6,1.1-9.2,1.7-13.9c0.1-1,0.1-2-1-2.7c-0.1,0.3-0.2,0.6-0.2,0.8
			c-0.4,3.7-0.8,7.4-1.3,11.1c-0.5,3.8-0.7,7.6-1.5,11.3C67.3,33.9,66.9,35,65.3,35.4z M78,35.3c2.3,1.4,2.7,1.5,6.6,1.3
			c3.7-0.2,7.4-3.1,8.1-6.6c0.7-3.2,0.9-6.5,0.2-9.7c-0.1-0.5-0.1-1.3-1.1-1.5c0.4,2.9,0.1,5.7-0.2,8.5c-0.2,1.6-0.9,3-1.9,4.3
			C86.8,35.2,82.8,35.9,78,35.3L78,35.3z M112.5,4.9c0.3,3.6,0.7,6.9,1.5,10.2c1.2,5.6,2.3,11.3,2.2,17c0,1.7-0.6,2.5-2.2,3.1
			c-0.3,0.1-0.8,0.1-1,0.5c0.9,0.9,2.2,1.1,3.3,0.7c1.1-0.5,1.4-1.3,1.3-2.4c-0.2-2.9-0.2-5.8-0.7-8.6c-1.1-6.2-2.7-12.4-3.1-18.8
			C113.6,6,113.3,5.5,112.5,4.9L112.5,4.9z M114.6,7.1c0.3,3.6,0.7,6.9,1.4,10.2c1.1,5.2,2.2,10.4,2.2,15.7c0,3.3,0,3.4-3.1,4.7
			c-0.1,0-0.1,0.2-0.1,0.3c1,1,2.2,0.9,3.3,0.4c1.2-0.5,1.3-1.5,1.2-2.6c-0.2-2.6-0.2-5.2-0.6-7.7c-1-6.5-2.8-12.9-3.2-19.5
			C115.7,8,115.3,7.6,114.6,7.1L114.6,7.1z M72.8,11.7c-0.3,0.2-0.3,0.6-0.4,0.9c-0.8,7-1.6,14-2.5,20.9c-0.2,1.6-0.5,3.4-2.4,4.1
			c1.4,1.4,2.5,1.5,3,0.1c1-3.1,1.6-6.3,1.1-9.5c-0.3-2.5-0.4-5,0.7-7.3c1.1-2.3,1.1-4.8,1.4-7.2C73.8,12.8,73.5,12.2,72.8,11.7
			L72.8,11.7z M93.9,20.6c0.5,2.6,0.2,4.8,0.1,7c-0.3,5.3-4,9.3-9.2,9.9c-1.4,0.2-2.8,0-4.3,0c2.9,1.9,7.9,1.7,10.8-0.5
			c2-1.6,4.2-3.2,2.9-6.3c-0.1-0.3,0-0.6,0-0.9c0-2.3,0.3-4.5,0.6-6.8C94.8,22.3,95,21.4,93.9,20.6L93.9,20.6z M99.2,35.9
			c1.3-0.1,2.6-0.3,3.2-1.7c0.4-0.9,0.8-1.8,0.7-2.9c-0.1-1,0.3-1.3,1.3-1.3c1.3,0,2.6,0,3.9-0.1c0.8,0,0.9-0.4,0.8-1.1
			c-0.1-0.7-0.5-0.7-1.1-0.5c-1.5,0.5-3,0.6-4.6,0.5c-1.2-0.1-1.7,0.2-1.7,1.5c-0.1,1.9-1.5,3.7-2.9,4.1c-0.3,0.1-1.1-0.2-1,0.5
			C97.9,35.7,98.5,35.9,99.2,35.9L99.2,35.9z M58.4,26.2c-1.2,2.4-2.4,4.6-3.6,6.9c-0.3,0.6-0.7,1.1-1.3,1.4c-0.4,0.2-1.3,0.2-0.8,1
			c0.3,0.6,1,0.8,1.7,0.6c0.8-0.2,1.4-0.6,1.8-1.4c0.9-1.8,1.8-3.6,2.8-5.4C59.6,28.1,59.3,27.2,58.4,26.2L58.4,26.2z M107,31
			c-0.7,0-0.9,0-1.2,0c-1.3-0.2-2,0.1-2.1,1.7c-0.1,1.7-0.9,3.2-2.8,3.8c-0.3,0.1-1.1-0.2-1,0.5c0.1,0.6,0.6,0.9,1.2,0.9
			c1.9,0,3.5-0.8,3.7-2.7c0.2-2.5,1-3.8,3.7-3.2c0.5,0.1,0.7-0.3,0.6-0.8c0-0.5-0.3-0.5-0.7-0.5C107.8,31,107.2,31,107,31L107,31z
			 M59.8,29.5c-1,1.9-1.9,3.7-2.8,5.5c-0.3,0.7-0.7,1.3-1.5,1.7c-0.4,0.2-1.1,0.2-0.8,1c0.3,0.6,0.8,0.8,1.4,0.7
			c0.8-0.1,1.5-0.4,2-1.2c0.6-1.1,1.2-2.3,1.8-3.4C60.5,32.3,60.8,31,59.8,29.5z M54.5,19.9c0.8-0.6,1-1.1,0.9-1.7
			C55,14,54.6,9.9,54.3,5.8c-0.1-0.7-0.3-1.2-1.2-1.6C53.6,9.4,54,14.5,54.5,19.9z M55.2,6.1c0.3,3.9,0.7,7.6,1,11.3
			C57.5,16.2,56.8,7.7,55.2,6.1z"/>
		<path d="M0.3,15.5c0.6-2.6,0.3-5.3,0.5-8c0.4-5.2,1.7-5.9,6.3-6c3-0.1,6,0.4,8.9,1c2.4,0.5,3.9,2.2,5.4,3.8c1.6,1.7,3.9,3,4.3,5.7
			c0,0.4,0.3,0.5,0.6,0.5c0.2,0,0.4,0,0.6,0c1.2,0.1,2.8,0.6,3.7,0.1c1-0.6,0.2-2.3,0.5-3.5c0.3-1,0.5-2.2,1.8-2.4
			c1.6-0.3,3.3-1.2,4.4,0.8c0.5,0.9,1.4,1.2,2,1.9c1.3,1.4,2.5,2.8,3.2,4.6c0.5,1.4,2,2.2,3.1,3.3c1,0.9,1.9,2.7,1.5,4.1
			c-0.4,1.3-1.5,1.9-2.8,2.2c-2.5,0.4-2.3,0.5-2.5,3c-0.2,2.5,0.7,4.4,2.8,5.7c1.1,0.7,1.4,3.5,0.6,4.5c-2.2,2.8-6.2,2.8-8.6-0.1
			c-0.8-1-1.8-2-2.8-2.8c-2-1.5-2.4-3.6-2.8-5.8C31,27,31.1,25.8,31,24.6c0-0.3,0-0.9-0.2-1c-1.6-0.4-2.5-1.6-3.6-2.7
			c-0.4-0.4-1-0.6-1.2-1.3c-0.2-0.8-0.9-1.1-1.5-0.3c-0.1,0.1-0.1,0.1-0.2,0.2c-1.9,1.9-2,1.9-0.6,4.1c1.6,2.6,2.1,5.3,0.6,8.2
			c-0.3,0.6-0.7,1.1-1.1,1.5c-3.5,3.3-7.7,5.2-12.5,5.9c-2,0.3-3.6-0.2-4.8-2c-0.6-0.9-1.5-1.8-2.4-2.4c-2.2-1.5-2.5-3.7-2.8-5.9
			c-0.1-0.4,0.1-0.9-0.3-1.3L0.3,15.5L0.3,15.5z M1.1,16.5C1.1,16.5,1,16.5,1.1,16.5C1,19.7,0.9,22.8,1,26c0.1,2,0.1,4,0.8,5.9
			c0.7,1.9,1.9,2.8,4,2.6c4.8-0.4,8.9-2.3,12.5-5.5c0.7-0.6,1.1-1.4,1.5-2.2c1.4-3.2,0.1-5.9-1.9-8.4c-0.7-0.9-0.7-1.4,0.1-2
			c2.6-1.9,3.2-4.5,3-7.5c-0.2-2.7-1.5-4.6-4.1-5.4C13.3,2.3,9.5,1.9,5.7,2.2c-2.9,0.2-4,1.4-4.2,4.4c0,0.2,0,0.4,0,0.6
			C1.4,10.3,1.2,13.4,1.1,16.5L1.1,16.5z M37.3,11.1C37.3,11.1,37.3,11.1,37.3,11.1c0-0.4,0.1-0.9,0.1-1.3c0-1.5-1-2.9-2.1-2.9
			c-2.4,0-3.4,0.7-3.6,2.7c-0.1,0.9-0.1,1.9-0.1,2.8c0,0.9-0.3,1.1-1.2,1c-1.3-0.1-2.7-0.3-4-0.2c-1.2,0-2.2,0.5-2.4,1.8
			c-0.2,1.5,0.6,3.1,1.8,3.5c1.5,0.5,3,0.6,4.6,0.6c1,0,1.3,0.4,1.3,1.3c0,1.7,0,3.4,0,5.1c0,2.1,0.2,4.2,1.1,6.1
			c1.2,2.6,4.5,3.5,7.1,1.8c1.4-0.9,1.1-2.1,1-3.4c-0.2-1.1-0.9-1.5-1.8-1.6c-1.4-0.2-1.7-1.1-1.7-2.4c0-1.4,0-2.8,0-4.2
			c0-1.6,0.8-2.5,2.4-2.7c0.2,0,0.5-0.1,0.7-0.1c1.1-0.3,2.1-0.7,2.1-2.1c0-2.3-0.6-3-2.4-3.2c-0.5-0.1-1-0.1-1.5,0
			c-1.1,0.1-1.4-0.4-1.3-1.4C37.3,11.8,37.3,11.5,37.3,11.1L37.3,11.1z M4.9,35.4c0.9,1,1.9,1.2,2.9,1.1c5-0.5,9.3-2.5,12.9-6
			c2-2,2.1-6,0.4-7.8c-0.1,3.3-0.6,5.1-1.9,6.4c-2.7,2.6-5.9,4.5-9.6,5.5C8.1,35,6.6,35.1,4.9,35.4z M7.3,37.6
			c0.9,0.9,1.4,1.2,2.6,1c4.9-0.5,9.2-2.5,12.8-5.9c2-1.9,2.2-5.6,0.5-7.9c0,0.7,0,1.3,0,1.8c-0.2,1.7-0.6,3.3-1.9,4.6
			c-3.1,3-6.8,5-11.2,5.9C9.2,37.2,8.2,37.1,7.3,37.6L7.3,37.6z M43.3,16c-0.2,2.1-1,3-2.7,3.6c-0.8,0.3-2-0.4-2.4,0.6
			C37.9,21,38.1,22,38,23c0,0.9,0,1.8,0,2.7c0,0.3,0,0.7,0.1,1c0.1,0.4,0.3,0.6,0.7,0.6c0.4,0,0.3-0.4,0.3-0.7c0-0.7,0-1.4,0-2.1
			c0-1.1-0.5-2.4,0.2-3.2c0.5-0.6,1.8-0.4,2.8-0.5s1.9-0.5,2-1.5C44.4,18.3,44.8,16.9,43.3,16L43.3,16z M21.7,7.5c0,0.6,0,0.8,0,1
			c0.4,3.2-0.1,6-2.8,8.1c-0.2,0.1-0.3,0.3-0.4,0.4c-0.6,0.8,0.3,1,0.5,1.5c0.1,0.4,0.4,0.5,0.8,0.1c1.4-1.3,3-2.6,3.1-4.7
			C23.1,11.8,23.4,9.7,21.7,7.5z M45.4,18.1c0.1,2-1,3-2.6,3.6c-0.8,0.3-2.1-0.4-2.5,0.7c-0.3,0.9-0.1,1.9-0.1,2.8
			c0,0.5,0,1.1,0,1.6c0,0.8,0.3,1.3,1.2,1.4c0-0.4,0-0.8,0-1.1c0-1.2-0.3-2.6,0.1-3.5c0.5-1.1,2.2-0.5,3.2-0.8
			c0.8-0.3,1.7-0.7,1.7-1.6C46.4,20.2,46.9,18.9,45.4,18.1z M36.3,35c2.3,1.5,5.2,1.2,6.4-0.5c0.7-1,0.2-3-0.8-3.7
			C41.5,33.6,40.2,34.6,36.3,35z M44,32.7c-0.2,3.5-2.8,4-5.5,4.4c2.2,1.4,4.9,1.2,6.2-0.4C45.4,35.7,45.1,33.7,44,32.7z M23.4,16.2
			c-0.5,0.5-0.9,1-1.3,1.4c-0.5,0.5-0.9,0.9-1.4,1.4c-0.8,0.7,0.1,1,0.3,1.5c0.2,0.4,0.4,0.6,0.9,0.2C23.8,19.5,24.1,18.6,23.4,16.2
			z M26.7,19.7c1.1,0.8,2.1,1.1,3.3,1.1c0.4,0,0.8,0,0.8-0.6c0-0.5-0.4-0.5-0.7-0.5C29.1,19.8,28,19.8,26.7,19.7L26.7,19.7z
			 M38.1,9.4c0,1,0,1.8,0,2.6c0,0.4,0,0.8,0.6,0.8c0.6,0,0.6-0.4,0.6-0.8C39.3,11,39.2,10.2,38.1,9.4L38.1,9.4z M23.8,9.8
			c0.1,1,0.1,1.8,0.2,2.5c0,0.3-0.2,0.8,0.4,0.7c0.4-0.1,0.8-0.3,0.6-0.8C24.8,11.4,24.7,10.5,23.8,9.8z"/>
		<path d="M104.8,22.7c0.1,0,0,0-0.2,0c-1-0.1-2.7,0.2-3-0.3c-0.5-0.9,0.4-2.1,0.7-3.2c1.1-3.2,2.2-6.5,3.3-9.7
			c0.1-0.4,0.1-1,0.8-0.9c0.5,0.1,0.4,0.6,0.4,1c0.3,3.8,0.8,7.5,2.1,11.1c0.6,1.8,0.2,2.2-1.7,2.2
			C106.5,22.9,105.8,22.8,104.8,22.7L104.8,22.7z M105.9,11c-1.2,3.5-2.3,6.8-3.3,10c-0.1,0.3-0.4,0.7,0.2,0.8
			c0.5,0.1,1.3,0.4,1.5-0.4C105.3,18.1,107.4,15,105.9,11L105.9,11z M106.8,16.8c-0.5,1.6-1,2.7-1.3,3.9c-0.1,0.4-0.7,1,0.1,1.2
			c0.7,0.2,1.3,0.1,1.7-0.8C107.9,19.7,107.3,18.4,106.8,16.8L106.8,16.8z"/>
		<path d="M86.4,24.6c0.1,1-0.2,2.1-0.3,3.2c-0.1,0.6-0.4,1.1-1,1.4c0,0-0.1,0.1-0.1,0.1c-1.9,1-4.1,2-5.9,0.6
			c-1.8-1.3-1.4-3.7-0.9-5.7c0.3-1.4,1.1-2.6,2-3.8c0.7-1,1.7-1.3,2.9-1.2c2.2,0.1,2.7,0.6,3.2,2.8C86.3,22.8,86.5,23.7,86.4,24.6z
			 M85.1,20.9c-1.3-1.2-3.2-1.3-4.1-0.3c-2,2.3-2.9,5-2,8c0.1,0.4,0.3,0.8,0.9,0.7C79.7,25.1,81.7,21.8,85.1,20.9L85.1,20.9z
			 M80.7,28c0.1,0.5-0.3,1.4,0.5,1.5c0.9,0.2,0.8-0.7,0.9-1.2c0.6-1.7,1.4-3.4,2.8-4.6c0.4-0.3,0.5-0.7,0.4-1.2
			c-0.1-0.4-0.3-0.5-0.6-0.5c-0.7,0-1.3,0.1-1.8,0.6C81.8,24.2,80.9,26,80.7,28L80.7,28z M85.7,23.9c-1.7,1.8-2.6,3.4-3,5.5
			C85.3,28.8,85.8,28.5,85.7,23.9z"/>
		<path d="M7,18c0-3.1,0-6.1,0-9.2C7,8.2,7,7.7,7.8,7.7c2.2,0.1,4.5-0.1,6.7,0.6c2,0.6,2.4,1.9,1.1,3.5c-1.5,1.9-3.6,3-5.7,3.9
			c-0.9,0.4-1.4,0.8-1.3,1.8c0.1,1,0,2.1,1.3,2.5c0.9,0.3,1.8,0.7,2.6,1.1c1.4,0.6,1.9,1.8,1.4,3.2c-1,3-3.3,3.7-6.2,3.9
			c-0.9,0.1-0.5-0.7-0.5-1.1c0-3,0-6.1,0-9.1C7.1,18,7.1,18,7,18z M15.3,9.8c-2.2-1.5-4.7-1.1-7.1-1.2c-0.6,0-0.4,0.6-0.4,1
			c0,1.6,0,3.3,0.1,4.9c0,0.4-0.3,1,0.5,1c0.6,0,0.8-0.4,0.8-1c-0.1-0.9,0-1.9-0.2-2.8c-0.2-1.4,0.2-2,1.7-1.9
			C12.2,9.9,13.8,9.8,15.3,9.8L15.3,9.8z M12.4,10.8c-1.6-0.1-2.4,0.6-2.4,2.3c0,0.2,0,0.5,0,0.7c0.1,0.3-0.2,0.8,0.4,0.8
			c0.4,0,0.8-0.3,0.7-0.8c-0.4-2.1,0.9-2,2.4-1.9c0.2,0,0.5,0,0.8,0c0.5,0,0.8-0.3,0.8-0.7c0-0.5-0.5-0.3-0.8-0.3
			C13.6,10.7,13,10.8,12.4,10.8L12.4,10.8z M7.9,20c0,2.2,0,4.2,0,6.3c0,0.4-0.3,1,0.5,1c0.8,0.1,0.9-0.5,0.8-1.1c0-1.6,0-3.2,0-4.8
			C9.3,20.7,8.9,20.3,7.9,20L7.9,20z M10.2,22c0,1.5,0,2.8,0,4c0,0.3-0.1,0.7,0.3,0.7c0.2,0,0.5-0.1,0.6-0.3
			C11.8,25.8,11.2,22.8,10.2,22L10.2,22z M12.1,23.5c0,0.9-0.2,1.6,0.2,2.4C13.3,25,13.1,24.2,12.1,23.5z"/>
	</g>
</g>
</svg>
